<svg xmlns="http://www.w3.org/2000/svg" style="margin:auto;background:0 0;display:block;shape-rendering:auto" width="200" height="200" viewBox="0 0 100 100" preserveAspectRatio="xMidYMid"><g transform="matrix(.7 0 0 .7 15 15)"><animateTransform attributeName="transform" type="rotate" repeatCount="indefinite" values="0 50 50;360 50 50" keyTimes="0;1" dur="4.166666666666666s"/><path fill-opacity=".8" fill="#e15b64" d="M50 50V0a50 50 0 0 1 50 50Z"/></g><g transform="matrix(.7 0 0 .7 15 15)"><animateTransform attributeName="transform" type="rotate" repeatCount="indefinite" values="0 50 50;360 50 50" keyTimes="0;1" dur="5.5555555555555545s"/><path fill-opacity=".8" fill="#f47e60" d="M50 50h50a50 50 0 0 1-50 50Z"/></g><g transform="matrix(.7 0 0 .7 15 15)"><animateTransform attributeName="transform" type="rotate" repeatCount="indefinite" values="0 50 50;360 50 50" keyTimes="0;1" dur="8.333333333333332s"/><path fill-opacity=".8" fill="#f8b26a" d="M50 50v50A50 50 0 0 1 0 50Z"/></g><g transform="matrix(.7 0 0 .7 15 15)"><animateTransform attributeName="transform" type="rotate" repeatCount="indefinite" values="0 50 50;360 50 50" keyTimes="0;1" dur="16.666666666666664s"/><path fill-opacity=".8" fill="#abbd81" d="M50 50H0A50 50 0 0 1 50 0Z"/></g></svg>